<svg width="18" height="18" viewBox="0 0 18 18" fill="none" xmlns="http://www.w3.org/2000/svg">
<path d="M5.12771 0.5C5.31327 0.500002 5.49544 0.547212 5.65534 0.636729C5.81523 0.726247 5.94701 0.85481 6.03701 1.00908L7.30867 3.18676C7.39067 3.32723 7.43541 3.48459 7.43903 3.6452C7.44266 3.80582 7.40505 3.96485 7.32947 4.10854L6.10459 6.43844C6.10459 6.43844 6.45968 8.17376 7.94554 9.58683C9.43192 10.9994 11.251 11.3315 11.251 11.3315L13.7013 10.1666C13.8525 10.0946 14.0199 10.0588 14.1889 10.0623C14.358 10.0657 14.5236 10.1083 14.6714 10.1864L16.9694 11.4012C17.1313 11.4869 17.2661 11.6122 17.36 11.7641C17.4539 11.916 17.5034 12.089 17.5033 12.2652V14.7725C17.5033 16.0497 16.2555 16.972 14.9828 16.5637C12.3688 15.725 8.31103 14.1285 5.73911 11.6835C3.1677 9.23838 1.48792 5.38124 0.606179 2.89564C0.176745 1.68621 1.14687 0.5 2.49028 0.5H5.12771Z" fill="#13B0F9" stroke="#13B0F9" stroke-linejoin="round"/>
</svg>
