<svg width="48" height="48" viewBox="0 0 48 48" fill="none" xmlns="http://www.w3.org/2000/svg">
<path d="M23 16C28 16 32 20 32 25C32 30 28 34 23 34C18 34 14 30 14 25C14 20 18 16 23 16ZM23 18C21.1435 18 19.363 18.7375 18.0503 20.0503C16.7375 21.363 16 23.1435 16 25C16 26.8565 16.7375 28.637 18.0503 29.9497C19.363 31.2625 21.1435 32 23 32C24.8565 32 26.637 31.2625 27.9497 29.9497C29.2625 28.637 30 26.8565 30 25C30 23.1435 29.2625 21.363 27.9497 20.0503C26.637 18.7375 24.8565 18 23 18ZM10 10H14L18 6H28L32 10H36C37.5913 10 39.1174 10.6321 40.2426 11.7574C41.3679 12.8826 42 14.4087 42 16V34C42 35.5913 41.3679 37.1174 40.2426 38.2426C39.1174 39.3679 37.5913 40 36 40H10C8.4087 40 6.88258 39.3679 5.75736 38.2426C4.63214 37.1174 4 35.5913 4 34V16C4 14.4087 4.63214 12.8826 5.75736 11.7574C6.88258 10.6321 8.4087 10 10 10ZM18.82 8L14.82 12H10C8.93913 12 7.92172 12.4214 7.17157 13.1716C6.42143 13.9217 6 14.9391 6 16V34C6 35.0609 6.42143 36.0783 7.17157 36.8284C7.92172 37.5786 8.93913 38 10 38H36C37.0609 38 38.0783 37.5786 38.8284 36.8284C39.5786 36.0783 40 35.0609 40 34V16C40 14.9391 39.5786 13.9217 38.8284 13.1716C38.0783 12.4214 37.0609 12 36 12H31.18L27.18 8H18.82Z" fill="black" fill-opacity="0.55"/>
</svg>
