<svg width="26" height="26" viewBox="0 0 26 26" fill="none" xmlns="http://www.w3.org/2000/svg">
<path d="M12.8333 23.8334C18.8164 23.8334 23.6667 18.9831 23.6667 13C23.6667 7.01693 18.8164 2.16669 12.8333 2.16669C6.85025 2.16669 2 7.01693 2 13C2 18.9831 6.85025 23.8334 12.8333 23.8334Z" stroke="#13B0F9" stroke-width="1.5"/>
<path d="M12.8334 6.5V19.5M16.0834 10.2917C16.0834 8.79667 14.6285 7.58333 12.8334 7.58333C11.0383 7.58333 9.58337 8.79667 9.58337 10.2917C9.58337 11.7867 11.0383 13 12.8334 13C14.6285 13 16.0834 14.2133 16.0834 15.7083C16.0834 17.2033 14.6285 18.4167 12.8334 18.4167C11.0383 18.4167 9.58337 17.2033 9.58337 15.7083" stroke="#13B0F9" stroke-width="1.5" stroke-linecap="round"/>
</svg>
