<svg width="24" height="24" viewBox="0 0 24 24" fill="none" xmlns="http://www.w3.org/2000/svg">
<path d="M14.0789 1.5C14.2378 1.49981 14.3927 1.5501 14.5212 1.64362C14.6496 1.73713 14.7451 1.86904 14.7938 2.02031L15.6188 4.58438C15.9631 4.75221 16.2952 4.94409 16.6125 5.15859L19.2469 4.59141C19.4022 4.5585 19.5639 4.57572 19.7088 4.64058C19.8537 4.70544 19.9742 4.8146 20.0531 4.95234L22.132 8.55C22.2115 8.68755 22.2452 8.84678 22.2284 9.00473C22.2116 9.16269 22.145 9.31122 22.0383 9.42891L20.2313 11.4234C20.2576 11.8058 20.2576 12.1895 20.2313 12.5719L22.0359 14.5711C22.143 14.6885 22.21 14.8369 22.2273 14.9949C22.2445 15.1528 22.2112 15.3122 22.132 15.45L20.0531 19.05C19.9739 19.1873 19.8532 19.296 19.7083 19.3604C19.5635 19.4248 19.4019 19.4417 19.2469 19.4086L16.6125 18.8414C16.2969 19.0539 15.9656 19.2453 15.6188 19.4156L14.7938 21.9797C14.7451 22.131 14.6496 22.2629 14.5212 22.3564C14.3927 22.4499 14.2378 22.5002 14.0789 22.5H9.92111C9.7622 22.5002 9.60734 22.4499 9.47886 22.3564C9.35038 22.2629 9.25493 22.131 9.20626 21.9797L8.38361 19.418C8.03769 19.2485 7.70406 19.0551 7.38517 18.8391L4.75314 19.4086C4.59785 19.4415 4.43612 19.4243 4.29124 19.3594C4.14635 19.2946 4.02579 19.1854 3.94689 19.0477L1.86798 15.45C1.78852 15.3125 1.75478 15.1532 1.77163 14.9953C1.78848 14.8373 1.85504 14.6888 1.96173 14.5711L3.76876 12.5719C3.74268 12.1911 3.74268 11.8089 3.76876 11.4281L1.96408 9.42891C1.85702 9.31148 1.79002 9.16308 1.77275 9.00512C1.75548 8.84715 1.78882 8.68779 1.86798 8.55L3.94689 4.95C4.02613 4.81269 4.14684 4.70401 4.2917 4.63959C4.43655 4.57516 4.5981 4.55829 4.75314 4.59141L7.38517 5.16094C7.70418 4.94509 8.0378 4.75166 8.38361 4.58203L9.20861 2.02031C9.25702 1.8698 9.35177 1.73844 9.47931 1.645C9.60685 1.55155 9.76066 1.5008 9.91876 1.5H14.0789ZM13.5305 3H10.4695L9.61876 5.64844L9.04454 5.92969C8.76137 6.06859 8.48807 6.22678 8.22657 6.40313L7.69689 6.76172L4.97345 6.17578L3.44298 8.82422L5.31095 10.8938L5.26408 11.5289C5.24251 11.8426 5.24251 12.1574 5.26408 12.4711L5.31095 13.1063L3.44064 15.1734L4.96876 17.8266L7.6922 17.2406L8.22423 17.5969C8.48504 17.7723 8.75755 17.9297 9.03986 18.068L9.61408 18.3492L10.4695 21H13.5328L14.3906 18.3469L14.9625 18.068C15.245 17.9309 15.5175 17.7742 15.7781 17.5992L16.3078 17.2406L19.0336 17.8266L20.5617 15.1734L18.6938 13.1063L18.7406 12.4711C18.7623 12.1566 18.7623 11.841 18.7406 11.5266L18.6938 10.8914L20.5641 8.82656L19.0313 6.17344L16.3055 6.75938L15.7758 6.40313C15.5152 6.22729 15.2427 6.06988 14.9602 5.93203L14.3906 5.64844L13.5305 3ZM12 7.5C13.1935 7.5 14.3381 7.97411 15.182 8.81802C16.0259 9.66193 16.5 10.8065 16.5 12C16.5 13.1935 16.0259 14.3381 15.182 15.182C14.3381 16.0259 13.1935 16.5 12 16.5C10.8065 16.5 9.66195 16.0259 8.81803 15.182C7.97412 14.3381 7.50001 13.1935 7.50001 12C7.50001 10.8065 7.97412 9.66193 8.81803 8.81802C9.66195 7.97411 10.8065 7.5 12 7.5ZM12 9C11.2044 9 10.4413 9.31607 9.87869 9.87868C9.31608 10.4413 9.00001 11.2044 9.00001 12C9.00001 12.7957 9.31608 13.5587 9.87869 14.1213C10.4413 14.6839 11.2044 15 12 15C12.7957 15 13.5587 14.6839 14.1213 14.1213C14.6839 13.5587 15 12.7957 15 12C15 11.2044 14.6839 10.4413 14.1213 9.87868C13.5587 9.31607 12.7957 9 12 9Z" fill="black"/>
</svg>
