<svg width="26" height="26" viewBox="0 0 26 26" fill="none" xmlns="http://www.w3.org/2000/svg">
<path fill-rule="evenodd" clip-rule="evenodd" d="M9.23646 3.36265C9.56979 3.25163 9.93013 3.25163 10.2635 3.36265L16.25 5.35815L21.9797 3.44824C22.1914 3.3777 22.4168 3.35846 22.6373 3.39211C22.8579 3.42576 23.0673 3.51132 23.2483 3.64177C23.4293 3.77221 23.5768 3.94379 23.6785 4.14238C23.7802 4.34096 23.8332 4.56087 23.8333 4.78399V19.11C23.8333 19.4511 23.7259 19.7835 23.5264 20.0602C23.3269 20.3369 23.0454 20.5438 22.7218 20.6516L16.7635 22.6373C16.4298 22.7489 16.0701 22.7489 15.7365 22.6373L9.74996 20.6418L4.02021 22.5517C3.80854 22.6223 3.58314 22.6415 3.36257 22.6079C3.14201 22.5742 2.9326 22.4887 2.75159 22.3582C2.57058 22.2278 2.42315 22.0562 2.32145 21.8576C2.21975 21.659 2.16668 21.4391 2.16663 21.216V6.88999C2.16666 6.54889 2.27402 6.21645 2.47352 5.93976C2.67301 5.66308 2.9545 5.45619 3.27813 5.3484L9.23646 3.36265ZM8.66663 18.72V5.8359L4.33329 7.28107V20.1641L8.66663 18.7189V18.72ZM10.8333 5.83699V18.72L15.1666 20.1652V7.27999L10.8333 5.83482V5.83699ZM17.3333 7.28216V20.1652L21.6666 18.72V5.8359L17.3333 7.28216Z" fill="#13B0F9"/>
</svg>
